<?xml version="1.0" encoding="UTF-8" standalone="no"?>
<!-- Created with Inkscape (http://www.inkscape.org/) -->

<svg
   width="59.249481mm"
   height="7.7584839mm"
   viewBox="0 0 59.249481 7.7584839"
   version="1.1"
   id="svg1"
   xmlns="http://www.w3.org/2000/svg"
   xmlns:svg="http://www.w3.org/2000/svg"
   xmlns:ns1="http://www.iki.fi/pav/software/textext/">
  <defs
     id="defs1" />
  <g
     id="layer1"
     transform="translate(-15.610417,-30.91603)">
    <ellipse
       style="fill:#000000;fill-opacity:0;stroke:#141818;stroke-width:0.565;stroke-linecap:round;stroke-linejoin:bevel;stroke-dasharray:none;stroke-opacity:0.820225;paint-order:fill markers stroke"
       id="path1-8"
       cx="18.984751"
       cy="35.010319"
       rx="3.0918343"
       ry="3.3816938" />
    <ellipse
       style="fill:#000000;fill-opacity:0;stroke:#141818;stroke-width:0.565;stroke-linecap:round;stroke-linejoin:bevel;stroke-dasharray:none;stroke-opacity:0.820225;paint-order:fill markers stroke"
       id="path1-0-0"
       cx="34.169022"
       cy="34.620445"
       rx="3.0918343"
       ry="3.3816938" />
    <path
       style="font-variation-settings:normal;fill:#2b0000;fill-opacity:1;stroke:#010100;stroke-width:0.365;stroke-linecap:butt;stroke-linejoin:miter;stroke-miterlimit:4;stroke-dasharray:none;stroke-dashoffset:0;stroke-opacity:0.606742;stop-color:#000000"
       d="m 22.187529,34.716225 8.801079,-0.06112 v 0"
       id="path2-2" />
    <g
       transform="matrix(1.0014724,0,0,0.88192178,40.544965,34.581353)"
       ns1:version="1.10.2"
       ns1:texconverter="pdflatex"
       ns1:pdfconverter="inkscape"
       ns1:text="$ \\cdots $"
       ns1:preamble="/Users/khanal/Library/Application Support/org.inkscape.Inkscape/config/inkscape/extensions/textext-1.10.2/textext/default_packages.tex"
       ns1:scale="1.4469417415958934"
       ns1:alignment="middle center"
       ns1:stroke-to-path="0"
       ns1:inkscapeversion="1.3.2"
       id="g7674"
       ns1:jacobian_sqrt="0.510449">
      <defs
         id="id-230ca2fc-f1ba-4cfa-80c2-79834e9bb8c9" />
      <g
         fill="#000000"
         fill-opacity="1"
         id="id-d0ad0243-7386-43b1-911e-ad59c62742fe"
         transform="translate(-149.571,-131.749)">
        <g
           transform="translate(148.712,134.765)"
           id="g412">
          <path
             d="m 1.90625,-2.5 c 0,-0.28125 -0.234375,-0.515625 -0.515625,-0.515625 -0.296875,0 -0.53125,0.234375 -0.53125,0.515625 0,0.296875 0.234375,0.53125 0.53125,0.53125 0.28125,0 0.515625,-0.234375 0.515625,-0.53125 z m 0,0"
             id="id-9ed3c085-5be6-4750-a17f-6bfaa024c37a" />
        </g>
      </g>
      <g
         fill="#000000"
         fill-opacity="1"
         id="id-1194fc1b-9f2b-4309-b024-a38ce2e53d3e"
         transform="translate(-149.571,-131.749)">
        <g
           transform="translate(153.143,134.765)"
           id="g1653">
          <path
             d="m 1.90625,-2.5 c 0,-0.28125 -0.234375,-0.515625 -0.515625,-0.515625 -0.296875,0 -0.53125,0.234375 -0.53125,0.515625 0,0.296875 0.234375,0.53125 0.53125,0.53125 0.28125,0 0.515625,-0.234375 0.515625,-0.53125 z m 0,0"
             id="id-b5e9ed55-ae62-4762-852f-bd88a5703722" />
        </g>
      </g>
      <g
         fill="#000000"
         fill-opacity="1"
         id="id-da1f63d8-97bc-4e3b-8ea5-5d3ea787b0b9"
         transform="translate(-149.571,-131.749)">
        <g
           transform="translate(157.565,134.765)"
           id="g8458">
          <path
             d="m 1.90625,-2.5 c 0,-0.28125 -0.234375,-0.515625 -0.515625,-0.515625 -0.296875,0 -0.53125,0.234375 -0.53125,0.515625 0,0.296875 0.234375,0.53125 0.53125,0.53125 0.28125,0 0.515625,-0.234375 0.515625,-0.53125 z m 0,0"
             id="id-74f3a597-b318-4f06-9446-e5808c2cb057" />
        </g>
      </g>
    </g>
    <ellipse
       style="fill:#000000;fill-opacity:0;stroke:#141818;stroke-width:0.565;stroke-linecap:round;stroke-linejoin:bevel;stroke-dasharray:none;stroke-opacity:0.820225;paint-order:fill markers stroke"
       id="path1-8-8"
       cx="56.301296"
       cy="34.970097"
       rx="3.0918343"
       ry="3.3816938" />
    <ellipse
       style="fill:#000000;fill-opacity:0;stroke:#141818;stroke-width:0.565;stroke-linecap:round;stroke-linejoin:bevel;stroke-dasharray:none;stroke-opacity:0.820225;paint-order:fill markers stroke"
       id="path1-0-0-1"
       cx="71.485565"
       cy="34.580223"
       rx="3.0918343"
       ry="3.3816938" />
    <path
       style="font-variation-settings:normal;fill:#2b0000;fill-opacity:1;stroke:#010100;stroke-width:0.365;stroke-linecap:butt;stroke-linejoin:miter;stroke-miterlimit:4;stroke-dasharray:none;stroke-dashoffset:0;stroke-opacity:0.606742;stop-color:#000000"
       d="m 59.504072,34.676004 8.801079,-0.06112 v 0"
       id="path2-2-4" />
  </g>
</svg>
