<?xml version="1.0" encoding="UTF-8" standalone="no"?>
<!-- Created with Inkscape (http://www.inkscape.org/) -->

<svg
   width="21.932941mm"
   height="7.7182631mm"
   viewBox="0 0 21.932941 7.7182631"
   version="1.1"
   id="svg1"
   xmlns="http://www.w3.org/2000/svg"
   xmlns:svg="http://www.w3.org/2000/svg"
   xmlns:ns1="http://www.iki.fi/pav/software/textext/">
  <defs
     id="defs1" />
  <g
     id="layer1"
     transform="translate(-18.664868,-13.597706)">
    <ellipse
       style="fill:#000000;fill-opacity:0;stroke:#141818;stroke-width:0.565;stroke-linecap:round;stroke-linejoin:bevel;stroke-dasharray:none;stroke-opacity:0.820225;paint-order:fill markers stroke"
       id="path1"
       cx="22.039202"
       cy="17.651775"
       rx="3.0918343"
       ry="3.3816938" />
    <ellipse
       style="fill:#000000;fill-opacity:0;stroke:#141818;stroke-width:0.565;stroke-linecap:round;stroke-linejoin:bevel;stroke-dasharray:none;stroke-opacity:0.820225;paint-order:fill markers stroke"
       id="path1-0"
       cx="37.223473"
       cy="17.2619"
       rx="3.0918343"
       ry="3.3816938" />
    <path
       style="font-variation-settings:normal;opacity:1;fill:#2b0000;fill-opacity:1;stroke:#010100;stroke-width:0.365;stroke-linecap:butt;stroke-linejoin:miter;stroke-miterlimit:4;stroke-dasharray:none;stroke-dashoffset:0;stroke-opacity:0.606742;stop-color:#000000;stop-opacity:1"
       d="m 25.24198,17.357681 8.801079,-0.06112 v 0"
       id="path2" />
    <g
       transform="matrix(0.505745,0,0,0.515197,35.785156,14.863956)"
       ns1:version="1.10.2"
       ns1:texconverter="pdflatex"
       ns1:pdfconverter="inkscape"
       ns1:text="$\\beta$"
       ns1:preamble="/Users/khanal/Library/Application Support/org.inkscape.Inkscape/config/inkscape/extensions/textext-1.10.2/textext/default_packages.tex"
       ns1:scale="1.4469417415958934"
       ns1:alignment="middle center"
       ns1:stroke-to-path="0"
       ns1:inkscapeversion="1.3.2"
       id="g6017"
       ns1:jacobian_sqrt="0.5104491226018515"
       style="stroke:none;stroke-width:1.97865;stroke-dasharray:none;stroke-opacity:0.606742">
      <defs
         id="id-1182ba25-7354-4588-9798-72f4756fc5f1" />
      <g
         fill="#000000"
         fill-opacity="1"
         id="id-e7146631-ba81-4bfa-bbcc-05dd4f8606a7"
         transform="translate(-149.009,-127.734)"
         style="stroke:none;stroke-width:1.97865;stroke-dasharray:none;stroke-opacity:0.606742">
        <g
           transform="translate(148.712,134.765)"
           id="g8796"
           style="stroke:none;stroke-width:1.97865;stroke-dasharray:none;stroke-opacity:0.606742">
          <path
             d="m 5.734375,-5.671875 c 0,-0.75 -0.546875,-1.359375 -1.359375,-1.359375 -0.578125,0 -0.859375,0.15625 -1.203125,0.40625 C 2.625,-6.21875 2.078125,-5.25 1.890625,-4.5 L 0.296875,1.828125 C 0.296875,1.875 0.34375,1.9375 0.421875,1.9375 0.5,1.9375 0.53125,1.90625 0.53125,1.890625 L 1.234375,-0.875 c 0.1875,0.609375 0.625,0.96875 1.359375,0.96875 C 3.3125,0.09375 4.0625,-0.25 4.515625,-0.6875 5,-1.140625 5.3125,-1.78125 5.3125,-2.515625 c 0,-0.71875 -0.375,-1.25 -0.734375,-1.484375 0.578125,-0.34375 1.15625,-0.953125 1.15625,-1.671875 z M 3.9375,-4.015625 c -0.125,0.046875 -0.234375,0.0625 -0.484375,0.0625 -0.140625,0 -0.328125,0.015625 -0.4375,-0.03125 0.03125,-0.109375 0.390625,-0.078125 0.5,-0.078125 0.203125,0 0.296875,0 0.421875,0.046875 z M 5.171875,-5.90625 c 0,0.703125 -0.375,1.421875 -0.890625,1.734375 C 4,-4.28125 3.8125,-4.296875 3.515625,-4.296875 c -0.21875,0 -0.78125,-0.015625 -0.78125,0.3125 0,0.28125 0.515625,0.25 0.6875,0.25 0.375,0 0.53125,0 0.828125,-0.125 0.375,0.359375 0.421875,0.671875 0.4375,1.125 0.015625,0.578125 -0.21875,1.328125 -0.5,1.71875 C 3.796875,-0.484375 3.125,-0.125 2.5625,-0.125 c -0.765625,0 -1.140625,-0.578125 -1.140625,-1.28125 0,-0.09375 0,-0.25 0.046875,-0.4375 L 2.109375,-4.359375 C 2.328125,-5.21875 3.046875,-6.8125 4.25,-6.8125 c 0.578125,0 0.921875,0.3125 0.921875,0.90625 z m 0,0"
             id="id-ff50ded3-1ab9-4f06-90c0-12bf56d1507a"
             style="stroke:none;stroke-width:1.97865;stroke-dasharray:none;stroke-opacity:0.606742" />
        </g>
      </g>
    </g>
    <g
       transform="matrix(0.510449,0,0,0.510449,20.636135,16.388563)"
       ns1:version="1.10.2"
       ns1:texconverter="pdflatex"
       ns1:pdfconverter="inkscape"
       ns1:text="$\\alpha$"
       ns1:preamble="/Users/khanal/Library/Application Support/org.inkscape.Inkscape/config/inkscape/extensions/textext-1.10.2/textext/default_packages.tex"
       ns1:scale="1.4469417415958934"
       ns1:alignment="middle center"
       ns1:stroke-to-path="0"
       ns1:inkscapeversion="1.3.2"
       id="g5387"
       ns1:jacobian_sqrt="0.510449">
      <defs
         id="id-fc3348db-a944-4bfd-9b38-678d78904e16" />
      <g
         fill="#000000"
         fill-opacity="1"
         id="id-f9eec708-fd08-46f4-947b-214a2d7bae11"
         transform="translate(-149.118,-130.359)">
        <g
           transform="translate(148.712,134.765)"
           id="g9091">
          <path
             d="m 4.75,-2.359375 c 0,-1.5625 -0.921875,-2.046875 -1.65625,-2.046875 -1.375,0 -2.6875,1.421875 -2.6875,2.828125 0,0.9375 0.59375,1.6875 1.625,1.6875 0.625,0 1.34375,-0.234375 2.09375,-0.84375 0.125,0.53125 0.453125,0.84375 0.90625,0.84375 0.53125,0 0.84375,-0.546875 0.84375,-0.703125 0,-0.078125 -0.0625,-0.109375 -0.125,-0.109375 -0.0625,0 -0.09375,0.03125 -0.125,0.109375 -0.1875,0.484375 -0.546875,0.484375 -0.5625,0.484375 -0.3125,0 -0.3125,-0.78125 -0.3125,-1.015625 0,-0.203125 0,-0.234375 0.109375,-0.34375 C 5.796875,-2.65625 6,-3.8125 6,-3.8125 6,-3.84375 5.984375,-3.921875 5.875,-3.921875 c -0.09375,0 -0.09375,0.03125 -0.140625,0.21875 -0.1875,0.625 -0.515625,1.375 -0.984375,1.96875 z m -0.65625,1.375 c -0.890625,0.765625 -1.65625,0.875 -2.046875,0.875 -0.59375,0 -0.90625,-0.453125 -0.90625,-1.09375 0,-0.484375 0.265625,-1.5625 0.578125,-2.0625 C 2.1875,-4 2.734375,-4.1875 3.078125,-4.1875 c 0.984375,0 0.984375,1.3125 0.984375,2.078125 0,0.375 0,0.953125 0.03125,1.125 z m 0,0"
             id="id-cc16450a-6091-41fb-a1e9-d3994e45deef" />
        </g>
      </g>
    </g>
  </g>
</svg>
